<svg width="125" height="20" viewBox="0 0 125 20" fill="none" xmlns="http://www.w3.org/2000/svg">
<path d="M9.76992 1.81699C10.1367 1.07374 11.1966 1.07374 11.5634 1.81699L13.3729 5.48347C13.5186 5.77862 13.8001 5.98319 14.1259 6.03051L18.1721 6.61846C18.9923 6.73765 19.3198 7.74562 18.7263 8.32416L15.7984 11.1781C15.5627 11.4079 15.4552 11.7389 15.5108 12.0632L16.202 16.0931C16.3421 16.91 15.4847 17.533 14.751 17.1473L11.132 15.2446C10.8407 15.0915 10.4926 15.0915 10.2013 15.2446L6.58228 17.1473C5.84865 17.533 4.99122 16.91 5.13133 16.0931L5.8225 12.0632C5.87814 11.7389 5.77059 11.4079 5.53491 11.1781L2.60704 8.32416C2.01352 7.74562 2.34103 6.73765 3.16125 6.61846L7.20746 6.03051C7.53317 5.98319 7.81474 5.77862 7.9604 5.48347L9.76992 1.81699Z" fill="white"/>
<path d="M35.7699 1.81699C36.1367 1.07374 37.1966 1.07374 37.5634 1.81699L39.3729 5.48347C39.5186 5.77862 39.8001 5.98319 40.1259 6.03051L44.1721 6.61846C44.9923 6.73765 45.3198 7.74562 44.7263 8.32416L41.7984 11.1781C41.5627 11.4079 41.4552 11.7389 41.5108 12.0632L42.202 16.0931C42.3421 16.91 41.4847 17.533 40.751 17.1473L37.132 15.2446C36.8407 15.0915 36.4926 15.0915 36.2013 15.2446L32.5823 17.1473C31.8486 17.533 30.9912 16.91 31.1313 16.0931L31.8225 12.0632C31.8781 11.7389 31.7706 11.4079 31.5349 11.1781L28.607 8.32416C28.0135 7.74562 28.341 6.73765 29.1613 6.61846L33.2075 6.03051C33.5332 5.98319 33.8147 5.77862 33.9604 5.48347L35.7699 1.81699Z" fill="white"/>
<path d="M61.7699 1.81699C62.1367 1.07374 63.1966 1.07374 63.5634 1.81699L65.3729 5.48347C65.5186 5.77862 65.8001 5.98319 66.1259 6.03051L70.1721 6.61846C70.9923 6.73765 71.3198 7.74562 70.7263 8.32416L67.7984 11.1781C67.5627 11.4079 67.4552 11.7389 67.5108 12.0632L68.202 16.0931C68.3421 16.91 67.4847 17.533 66.751 17.1473L63.132 15.2446C62.8407 15.0915 62.4926 15.0915 62.2013 15.2446L58.5823 17.1473C57.8486 17.533 56.9912 16.91 57.1313 16.0931L57.8225 12.0632C57.8781 11.7389 57.7706 11.4079 57.5349 11.1781L54.607 8.32416C54.0135 7.74562 54.341 6.73765 55.1613 6.61846L59.2075 6.03051C59.5332 5.98319 59.8147 5.77862 59.9604 5.48347L61.7699 1.81699Z" fill="white"/>
<path d="M87.7699 1.81699C88.1367 1.07374 89.1966 1.07374 89.5634 1.81699L91.3729 5.48347C91.5186 5.77862 91.8001 5.98319 92.1259 6.03051L96.1721 6.61846C96.9923 6.73765 97.3198 7.74562 96.7263 8.32416L93.7984 11.1781C93.5627 11.4079 93.4552 11.7389 93.5108 12.0632L94.202 16.0931C94.3421 16.91 93.4847 17.533 92.751 17.1473L89.132 15.2446C88.8407 15.0915 88.4926 15.0915 88.2013 15.2446L84.5823 17.1473C83.8486 17.533 82.9912 16.91 83.1313 16.0931L83.8225 12.0632C83.8781 11.7389 83.7706 11.4079 83.5349 11.1781L80.607 8.32416C80.0135 7.74562 80.341 6.73765 81.1613 6.61846L85.2075 6.03051C85.5332 5.98319 85.8147 5.77862 85.9604 5.48347L87.7699 1.81699Z" fill="white"/>
<path d="M113.77 1.81699C114.137 1.07374 115.197 1.07374 115.563 1.81699L117.373 5.48347C117.519 5.77862 117.8 5.98319 118.126 6.03051L122.172 6.61846C122.992 6.73765 123.32 7.74562 122.726 8.32416L119.798 11.1781C119.563 11.4079 119.455 11.7389 119.511 12.0632L120.202 16.0931C120.342 16.91 119.485 17.533 118.751 17.1473L115.132 15.2446C114.841 15.0915 114.493 15.0915 114.201 15.2446L110.582 17.1473C109.849 17.533 108.991 16.91 109.131 16.0931L109.823 12.0632C109.878 11.7389 109.771 11.4079 109.535 11.1781L106.607 8.32416C106.014 7.74562 106.341 6.73765 107.161 6.61846L111.207 6.03051C111.533 5.98319 111.815 5.77862 111.96 5.48347L113.77 1.81699Z" fill="white"/>
</svg>
